Coordinates
version=1
nRows=34
nColumns=38
inDegrees=no

Units are S.I. units (second, meters, Newtons, ...)
If the header above contains a line with 'inDegrees', this indicates whether rotational values are in degrees (yes) or radians (no).

endheader
time	pelvis_tilt	pelvis_list	pelvis_rotation	pelvis_tx	pelvis_ty	pelvis_tz	hip_flexion_r	hip_adduction_r	hip_rotation_r	knee_angle_r	ankle_angle_r	subtalar_angle_r	mtp_angle_r	hip_flexion_l	hip_adduction_l	hip_rotation_l	knee_angle_l	ankle_angle_l	subtalar_angle_l	mtp_angle_l	lumbar_extension	lumbar_bending	lumbar_rotation	arm_flex_r	arm_add_r	arm_rot_r	elbow_flex_r	pro_sup_r	wrist_flex_r	wrist_dev_r	arm_flex_l	arm_add_l	arm_rot_l	elbow_flex_l	pro_sup_l	wrist_flex_l	wrist_dev_l
55	0.162181	1.27201	-1.33138	0.72249	-0.680189	0.947656	-0.444884	0.0618179	-0.310079	0.0524391	-0.352411	0	0	-0.187676	-0.241422	-0.532986	0.315332	-0.413204	0	0	-0.673351	0.157114	-0.889854	0.171677	-0.149736	0.71998	0.774402	1.40121	0	0	-0.441596	0.0174491	-0.763105	1.24593	1.5708	0	0
55.01	0.155315	1.27918	-1.33288	0.723874	-0.681657	0.947329	-0.43725	0.0565943	-0.29855	0.0551888	-0.351104	0	0	-0.18651	-0.23793	-0.54206	0.31118	-0.416057	0	0	-0.663433	0.154838	-0.882572	0.17326	-0.149491	0.72017	0.768126	1.40284	0	0	-0.436348	0.0196462	-0.761184	1.23423	1.5708	0	0
55.02	0.185503	1.27764	-1.36422	0.7251	-0.681874	0.948241	-0.440222	0.0449099	-0.297341	0.0594248	-0.34737	0	0	-0.237834	-0.224674	-0.332909	0.239163	-0.376517	0	0	-0.666379	0.146542	-0.884257	0.174419	-0.142621	0.714487	0.759808	1.4163	0	0	-0.434274	0.0176095	-0.760603	1.23042	1.5708	0	0
55.03	0.160479	1.28019	-1.33891	0.72618	-0.683024	0.947183	-0.437843	0.0520436	-0.293015	0.0582266	-0.346216	0	0	-0.191217	-0.231553	-0.532353	0.303427	-0.409565	0	0	-0.659229	0.152609	-0.880447	0.172181	-0.142647	0.708549	0.760709	1.42619	0	0	-0.434158	0.0193816	-0.759218	1.22795	1.5708	0	0
55.04	0.162898	1.27998	-1.34158	0.72725	-0.68371	0.947145	-0.439029	0.0502277	-0.291504	0.0593301	-0.345352	0	0	-0.193314	-0.230926	-0.538974	0.303932	-0.412704	0	0	-0.657984	0.151576	-0.879915	0.172455	-0.139947	0.705896	0.757774	1.4276	0	0	-0.433924	0.019581	-0.758993	1.22667	1.5708	0	0
55.05	0.196713	1.27614	-1.37611	0.728347	-0.683913	0.948239	-0.445287	0.038457	-0.294038	0.0619948	-0.344139	0	0	-0.250555	-0.215347	-0.309848	0.223057	-0.372654	0	0	-0.663699	0.142401	-0.882343	0.172856	-0.132121	0.697238	0.749871	1.4371	0	0	-0.43331	0.0176972	-0.759179	1.2266	1.5708	0	0
55.06	0.198458	1.27583	-1.378	0.729359	-0.684535	0.948194	-0.446582	0.0369106	-0.2936	0.0629303	-0.343697	0	0	-0.253811	-0.213281	-0.305442	0.219458	-0.370729	0	0	-0.662655	0.141446	-0.881686	0.173965	-0.12899	0.695331	0.745461	1.43856	0	0	-0.433248	0.0178393	-0.758953	1.22637	1.5708	0	0
55.07	0.199553	1.27577	-1.37923	0.730356	-0.685106	0.948118	-0.447693	0.0355332	-0.293215	0.0634664	-0.343048	0	0	-0.256519	-0.211462	-0.302426	0.216418	-0.369128	0	0	-0.661381	0.140664	-0.880893	0.175639	-0.125693	0.694219	0.739664	1.44222	0	0	-0.433105	0.0179037	-0.758644	1.22648	1.5708	0	0
55.08	0.200865	1.27608	-1.38068	0.731344	-0.685633	0.94803	-0.44833	0.0339573	-0.293307	0.0641388	-0.342289	0	0	-0.258621	-0.209523	-0.299541	0.213754	-0.367592	0	0	-0.659892	0.139868	-0.880307	0.177792	-0.122012	0.693517	0.732197	1.44881	0	0	-0.432901	0.0180533	-0.758605	1.22683	1.5708	0	0
55.09	0.209957	1.27097	-1.38683	0.732058	-0.685839	0.948253	-0.455673	0.0329929	-0.29908	0.0634728	-0.342261	0	0	-0.265271	-0.207765	-0.295366	0.212142	-0.366583	0	0	-0.66499	0.138247	-0.883105	0.178637	-0.117002	0.690565	0.72759	1.45475	0	0	-0.435647	0.0173175	-0.760017	1.23292	1.5708	0	0
55.1	0.203766	1.27503	-1.38389	0.733203	-0.686741	0.948007	-0.451784	0.0312198	-0.296235	0.0647364	-0.342222	0	0	-0.2644	-0.206357	-0.295356	0.209198	-0.365896	0	0	-0.658889	0.138497	-0.879755	0.181116	-0.115425	0.689779	0.719975	1.45709	0	0	-0.433155	0.0189403	-0.75984	1.22918	1.5708	0	0
55.11	0.196838	1.269	-1.38284	0.73292	-0.688192	0.948563	-0.461364	0.0341521	-0.290633	0.0588148	-0.346197	0	0	-0.328869	-0.220455	-0.255517	0.02845	-0.50486	0	0	-0.663324	0.135723	-0.872389	0.181195	-0.111467	0.68746	0.711354	1.46447	0	0	-0.434346	0.0186863	-0.760094	1.23033	1.5708	0	0
55.12	0.185281	1.27053	-1.35641	0.734717	-0.687374	0.947231	-0.460521	0.0427066	-0.305395	0.0572536	-0.346017	0	0	-0.209735	-0.219334	-0.530007	0.302981	-0.412146	0	0	-0.659947	0.146763	-0.883397	0.183805	-0.110384	0.691395	0.709864	1.46547	0	0	-0.437576	0.0195442	-0.762528	1.23942	1.5708	0	0
55.13	0.17223	1.28005	-1.35177	0.73591	-0.688732	0.946643	-0.449954	0.0388888	-0.297327	0.0591444	-0.345432	0	0	-0.207459	-0.21998	-0.539377	0.29675	-0.411503	0	0	-0.647429	0.146354	-0.875358	0.187	-0.111964	0.692384	0.70118	1.46626	0	0	-0.432153	0.0222928	-0.760944	1.23022	1.5708	0	0
55.14	0.210455	1.27199	-1.38885	0.736584	-0.688495	0.948015	-0.460804	0.0277937	-0.306869	0.0607457	-0.346046	0	0	-0.271769	-0.203452	-0.296329	0.208619	-0.365214	0	0	-0.658578	0.13709	-0.879857	0.190399	-0.105738	0.693192	0.691486	1.46849	0	0	-0.433015	0.0195707	-0.762532	1.23517	1.5708	0	0
55.15	0.203649	1.27631	-1.38621	0.737643	-0.689239	0.947777	-0.455758	0.0256761	-0.305736	0.0626757	-0.346211	0	0	-0.270915	-0.20131	-0.294283	0.204352	-0.363671	0	0	-0.652777	0.137752	-0.875372	0.193754	-0.106273	0.695076	0.684646	1.4698	0	0	-0.429447	0.0210955	-0.762038	1.23133	1.5708	0	0
55.16	0.203226	1.27832	-1.38696	0.738489	-0.689726	0.947556	-0.454688	0.0243331	-0.307482	0.0616624	-0.346438	0	0	-0.270815	-0.199223	-0.291555	0.202077	-0.361574	0	0	-0.649625	0.137384	-0.874011	0.197406	-0.105481	0.699125	0.676737	1.47312	0	0	-0.427828	0.0215968	-0.762225	1.23057	1.5708	0	0
55.17	0.204322	1.2791	-1.38935	0.739296	-0.690178	0.947453	-0.454793	0.0226265	-0.309144	0.0611134	-0.346827	0	0	-0.271984	-0.197055	-0.290469	0.200413	-0.360123	0	0	-0.648106	0.136745	-0.873021	0.201167	-0.104394	0.702963	0.668888	1.47647	0	0	-0.426642	0.0221296	-0.7628	1.23076	1.5708	0	0
55.18	0.204841	1.27961	-1.39118	0.740076	-0.690621	0.947383	-0.454478	0.0209432	-0.310642	0.0622659	-0.346607	0	0	-0.273219	-0.195363	-0.28999	0.199117	-0.359167	0	0	-0.646858	0.136387	-0.872076	0.205083	-0.102704	0.706397	0.659544	1.47834	0	0	-0.425463	0.0225412	-0.763274	1.23078	1.5708	0	0
55.19	0.205092	1.28011	-1.39277	0.7408	-0.691056	0.947317	-0.453999	0.0193777	-0.311785	0.0637009	-0.346037	0	0	-0.27416	-0.193926	-0.289989	0.198436	-0.358439	0	0	-0.645697	0.136054	-0.870916	0.208999	-0.100309	0.709109	0.648679	1.47787	0	0	-0.424416	0.0226218	-0.763239	1.23085	1.5708	0	0
55.2	0.204609	1.28074	-1.39372	0.741459	-0.691476	0.947235	-0.453164	0.0179007	-0.312358	0.0653651	-0.345384	0	0	-0.274615	-0.192908	-0.29075	0.198421	-0.357702	0	0	-0.644485	0.135771	-0.869863	0.213895	-0.0977164	0.712561	0.637223	1.47943	0	0	-0.423598	0.0226514	-0.763249	1.23105	1.5708	0	0
55.21	0.203025	1.28152	-1.39339	0.742047	-0.691879	0.94713	-0.451899	0.0167675	-0.312309	0.0675034	-0.344426	0	0	-0.274482	-0.192518	-0.291864	0.198997	-0.356818	0	0	-0.643036	0.135772	-0.869041	0.219102	-0.0939356	0.71551	0.623589	1.4802	0	0	-0.423009	0.0225237	-0.763253	1.23129	1.5708	0	0
55.22	0.209747	1.27656	-1.39783	0.742333	-0.691937	0.947356	-0.457852	0.0164707	-0.317062	0.0679714	-0.344013	0	0	-0.27918	-0.192424	-0.29105	0.200515	-0.356135	0	0	-0.64852	0.134748	-0.87194	0.224272	-0.0876769	0.718985	0.609451	1.48041	0	0	-0.425577	0.0210947	-0.764372	1.23739	1.5708	0	0
55.23	0.529534	1.24151	-1.42345	0.745559	-0.659566	0.951906	-0.496176	0.044829	-0.617488	0.0869672	-0.356951	0	0	-0.153175	-0.167049	-0.0583776	0.320215	-0.409533	0	0	-0.720763	0.186473	-1.14234	0.22815	0.0285721	0.696705	0.536477	1.49255	0	0	-0.49304	-0.0524451	-0.803417	1.36125	1.5708	0	0
55.24	0.20294	1.28035	-1.39681	0.743573	-0.693303	0.947178	-0.453474	0.0133589	-0.310928	0.0712449	-0.344704	0	0	-0.282315	-0.188293	-0.280849	0.189787	-0.365339	0	0	-0.642296	0.134484	-0.867444	0.236366	-0.0761965	0.718784	0.570657	1.49639	0	0	-0.42289	0.0213676	-0.762678	1.23353	1.5708	0	0
55.25	0.171502	1.28196	-1.36202	0.743853	-0.693875	0.94588	-0.451222	0.0249709	-0.310719	0.0700393	-0.34071	0	0	-0.219654	-0.208796	-0.54301	0.291974	-0.392623	0	0	-0.637115	0.1434	-0.866607	0.241669	-0.0735082	0.726646	0.557148	1.48894	0	0	-0.425651	0.0215979	-0.761352	1.23776	1.5708	0	0
55.26	0.195692	1.28207	-1.39243	0.744474	-0.694331	0.946857	-0.45134	0.0127598	-0.308271	0.0742774	-0.339857	0	0	-0.2768	-0.193377	-0.305748	0.205145	-0.353201	0	0	-0.638442	0.135028	-0.86449	0.250716	-0.0641579	0.726739	0.530324	1.49556	0	0	-0.422649	0.0195911	-0.758906	1.23314	1.5708	0	0
55.27	0.194389	1.28238	-1.39315	0.744911	-0.695001	0.946862	-0.451776	0.0118723	-0.307338	0.074059	-0.340416	0	0	-0.280375	-0.191045	-0.298532	0.198934	-0.351434	0	0	-0.6366	0.135465	-0.864397	0.258476	-0.0560672	0.728617	0.50649	1.49879	0	0	-0.439876	-0.00818336	-0.718117	1.23655	1.5708	0	0
55.28	0.342559	1.23909	-1.556	0.748923	-0.695047	0.952733	-0.505785	-0.0503955	-0.34059	0.0771454	-0.353574	0	0	-0.401649	-0.10173	-0.057169	0.0439766	-0.394222	0	0	-0.685945	0.0958164	-0.876555	0.272355	-0.0505649	0.734142	0.490401	1.50234	0	0	-0.439708	-0.00742557	-0.717546	1.24461	1.5708	0	0
55.29	0.341854	1.23789	-1.55629	0.74927	-0.69556	0.952726	-0.508251	-0.0508649	-0.340751	0.0759761	-0.354511	0	0	-0.404545	-0.101414	-0.0573559	0.0425898	-0.402289	0	0	-0.686298	0.095515	-0.875637	0.279409	-0.0422654	0.734649	0.467137	1.50287	0	0	-0.441432	-0.0106387	-0.712722	1.24583	1.5708	0	0
55.3	0.332332	1.24089	-1.54615	0.74971	-0.696094	0.95207	-0.506077	-0.0472329	-0.339959	0.0749779	-0.353869	0	0	-0.338638	-0.0925949	-0.078862	0.123295	-0.405549	0	0	-0.681699	0.0989256	-0.874898	0.287152	-0.0336254	0.735675	0.441727	1.50543	0	0	-0.443133	-0.0132996	-0.707743	1.24612	1.5708	0	0
55.31	0.330597	1.24013	-1.54536	0.750006	-0.696617	0.951963	-0.507968	-0.0469925	-0.339786	0.0740289	-0.353684	0	0	-0.339167	-0.0931228	-0.0826991	0.126451	-0.401937	0	0	-0.681517	0.099161	-0.873438	0.294413	-0.0247294	0.734553	0.417264	1.5066	0	0	-0.444574	-0.0168492	-0.702345	1.24684	1.5708	0	0
55.32	0.337611	1.23547	-1.55457	0.750164	-0.697092	0.952463	-0.514267	-0.0503406	-0.340891	0.0726638	-0.355184	0	0	-0.408136	-0.102228	-0.063742	0.0476942	-0.397181	0	0	-0.685938	0.0959676	-0.872591	0.302352	-0.0140134	0.731615	0.390884	1.51008	0	0	-0.446154	-0.0209258	-0.697397	1.248	1.5708	0	0
55.33	0.192963	1.27496	-1.39748	0.746834	-0.698085	0.946723	-0.467232	0.0109726	-0.308396	0.0662119	-0.344474	0	0	-0.299583	-0.187395	-0.287814	0.187416	-0.351238	0	0	-0.639037	0.135178	-0.858072	0.301701	-0.00216359	0.714739	0.361383	1.52205	0	0	-0.449193	-0.0284268	-0.687767	1.24224	1.5708	0	0
